<svg xmlns="http://www.w3.org/2000/svg" xmlns:xlink="http://www.w3.org/1999/xlink" xmlns:s="https://github.com/nturley/netlistsvg" width="1365" height="1218.5">
  <style>svg {
    stroke:#000;
    fill:none;
  }
  text {
    fill:#000;
    stroke:none;
    font-size:10px;
    font-weight: bold;
    font-family: "Courier New", monospace;
  }
  .nodelabel {
    text-anchor: middle;
  }
  .inputPortLabel {
    text-anchor: end;
  }
  .splitjoinBody {
    fill:#000;
  }</style>
  <g s:type="add" transform="translate(88.33333333333333,1011.5)" s:width="25" s:height="25" id="cell_$add$.\hdl\Datapath.sv:31$23">
    <s:alias val="$add"/>
    <circle r="12.5" cx="12.5" cy="12.5" class="cell_$add$.\hdl\Datapath.sv:31$23"/>
    <line x1="7.5" x2="17.5" y1="12.5" y2="12.5" class="cell_$add$.\hdl\Datapath.sv:31$23"/>
    <line x1="12.5" x2="12.5" y1="7.5" y2="17.5" class="cell_$add$.\hdl\Datapath.sv:31$23"/>
    <g s:x="3" s:y="5" s:pid="A"/>
    <g s:x="3" s:y="20" s:pid="B"/>
    <g s:x="25" s:y="12.5" s:pid="Y"/>
  </g>
  <g s:type="not" transform="translate(1199,558.5)" s:width="30" s:height="20" id="cell_$eq$.\hdl\Datapath.sv:123$39">
    <s:alias val="$_NOT_"/>
    <s:alias val="$not"/>
    <s:alias val="$logic_not"/>
    <path d="M0,0 L0,20 L20,10 Z" class="cell_$eq$.\hdl\Datapath.sv:123$39"/>
    <circle cx="23" cy="10" r="3" class="cell_$eq$.\hdl\Datapath.sv:123$39"/>
    <g s:x="0" s:y="10" s:pid="A"/>
    <g s:x="25" s:y="10" s:pid="Y"/>
  </g>
  <g s:type="eq" transform="translate(1085,852)" s:width="25" s:height="25" id="cell_$eq$.\hdl\Datapath.sv:125$40">
    <s:alias val="$eq"/>
    <circle r="12.5" cx="12.5" cy="12.5" class="cell_$eq$.\hdl\Datapath.sv:125$40"/>
    <line x1="7.5" x2="17.5" y1="10" y2="10" class="cell_$eq$.\hdl\Datapath.sv:125$40"/>
    <line x1="7.5" x2="17.5" y1="15" y2="15" class="cell_$eq$.\hdl\Datapath.sv:125$40"/>
    <g s:x="3" s:y="5" s:pid="A"/>
    <g s:x="3" s:y="20" s:pid="B"/>
    <g s:x="25" s:y="12.5" s:pid="Y"/>
  </g>
  <g s:type="eq" transform="translate(929,786)" s:width="25" s:height="25" id="cell_$eq$.\hdl\Datapath.sv:127$41">
    <s:alias val="$eq"/>
    <circle r="12.5" cx="12.5" cy="12.5" class="cell_$eq$.\hdl\Datapath.sv:127$41"/>
    <line x1="7.5" x2="17.5" y1="10" y2="10" class="cell_$eq$.\hdl\Datapath.sv:127$41"/>
    <line x1="7.5" x2="17.5" y1="15" y2="15" class="cell_$eq$.\hdl\Datapath.sv:127$41"/>
    <g s:x="3" s:y="5" s:pid="A"/>
    <g s:x="3" s:y="20" s:pid="B"/>
    <g s:x="25" s:y="12.5" s:pid="Y"/>
  </g>
  <g s:type="not" transform="translate(1199,1175.5)" s:width="30" s:height="20" id="cell_$eq$.\hdl\Datapath.sv:38$25">
    <s:alias val="$_NOT_"/>
    <s:alias val="$not"/>
    <s:alias val="$logic_not"/>
    <path d="M0,0 L0,20 L20,10 Z" class="cell_$eq$.\hdl\Datapath.sv:38$25"/>
    <circle cx="23" cy="10" r="3" class="cell_$eq$.\hdl\Datapath.sv:38$25"/>
    <g s:x="0" s:y="10" s:pid="A"/>
    <g s:x="25" s:y="10" s:pid="Y"/>
  </g>
  <g s:type="eq" transform="translate(1085,1150.5)" s:width="25" s:height="25" id="cell_$eq$.\hdl\Datapath.sv:40$26">
    <s:alias val="$eq"/>
    <circle r="12.5" cx="12.5" cy="12.5" class="cell_$eq$.\hdl\Datapath.sv:40$26"/>
    <line x1="7.5" x2="17.5" y1="10" y2="10" class="cell_$eq$.\hdl\Datapath.sv:40$26"/>
    <line x1="7.5" x2="17.5" y1="15" y2="15" class="cell_$eq$.\hdl\Datapath.sv:40$26"/>
    <g s:x="3" s:y="5" s:pid="A"/>
    <g s:x="3" s:y="20" s:pid="B"/>
    <g s:x="25" s:y="12.5" s:pid="Y"/>
  </g>
  <g s:type="eq" transform="translate(929,989)" s:width="25" s:height="25" id="cell_$eq$.\hdl\Datapath.sv:42$27">
    <s:alias val="$eq"/>
    <circle r="12.5" cx="12.5" cy="12.5" class="cell_$eq$.\hdl\Datapath.sv:42$27"/>
    <line x1="7.5" x2="17.5" y1="10" y2="10" class="cell_$eq$.\hdl\Datapath.sv:42$27"/>
    <line x1="7.5" x2="17.5" y1="15" y2="15" class="cell_$eq$.\hdl\Datapath.sv:42$27"/>
    <g s:x="3" s:y="5" s:pid="A"/>
    <g s:x="3" s:y="20" s:pid="B"/>
    <g s:x="25" s:y="12.5" s:pid="Y"/>
  </g>
  <g s:type="eq" transform="translate(770.6666666666666,959)" s:width="25" s:height="25" id="cell_$eq$.\hdl\Datapath.sv:44$28">
    <s:alias val="$eq"/>
    <circle r="12.5" cx="12.5" cy="12.5" class="cell_$eq$.\hdl\Datapath.sv:44$28"/>
    <line x1="7.5" x2="17.5" y1="10" y2="10" class="cell_$eq$.\hdl\Datapath.sv:44$28"/>
    <line x1="7.5" x2="17.5" y1="15" y2="15" class="cell_$eq$.\hdl\Datapath.sv:44$28"/>
    <g s:x="3" s:y="5" s:pid="A"/>
    <g s:x="3" s:y="20" s:pid="B"/>
    <g s:x="25" s:y="12.5" s:pid="Y"/>
  </g>
  <g s:type="not" transform="translate(660,842)" s:width="30" s:height="20" id="cell_$eq$.\hdl\Datapath.sv:87$33">
    <s:alias val="$_NOT_"/>
    <s:alias val="$not"/>
    <s:alias val="$logic_not"/>
    <path d="M0,0 L0,20 L20,10 Z" class="cell_$eq$.\hdl\Datapath.sv:87$33"/>
    <circle cx="23" cy="10" r="3" class="cell_$eq$.\hdl\Datapath.sv:87$33"/>
    <g s:x="0" s:y="10" s:pid="A"/>
    <g s:x="25" s:y="10" s:pid="Y"/>
  </g>
  <g s:type="eq" transform="translate(547.6666666666666,817)" s:width="25" s:height="25" id="cell_$eq$.\hdl\Datapath.sv:89$34">
    <s:alias val="$eq"/>
    <circle r="12.5" cx="12.5" cy="12.5" class="cell_$eq$.\hdl\Datapath.sv:89$34"/>
    <line x1="7.5" x2="17.5" y1="10" y2="10" class="cell_$eq$.\hdl\Datapath.sv:89$34"/>
    <line x1="7.5" x2="17.5" y1="15" y2="15" class="cell_$eq$.\hdl\Datapath.sv:89$34"/>
    <g s:x="3" s:y="5" s:pid="A"/>
    <g s:x="3" s:y="20" s:pid="B"/>
    <g s:x="25" s:y="12.5" s:pid="Y"/>
  </g>
  <g s:type="eq" transform="translate(431,628.5)" s:width="25" s:height="25" id="cell_$eq$.\hdl\Datapath.sv:91$35">
    <s:alias val="$eq"/>
    <circle r="12.5" cx="12.5" cy="12.5" class="cell_$eq$.\hdl\Datapath.sv:91$35"/>
    <line x1="7.5" x2="17.5" y1="10" y2="10" class="cell_$eq$.\hdl\Datapath.sv:91$35"/>
    <line x1="7.5" x2="17.5" y1="15" y2="15" class="cell_$eq$.\hdl\Datapath.sv:91$35"/>
    <g s:x="3" s:y="5" s:pid="A"/>
    <g s:x="3" s:y="20" s:pid="B"/>
    <g s:x="25" s:y="12.5" s:pid="Y"/>
  </g>
  <g s:type="mux" transform="translate(1086.6666666666667,64)" s:width="20" s:height="40" id="cell_$procmux$34260">
    <s:alias val="$pmux"/>
    <s:alias val="$mux"/>
    <s:alias val="$_MUX_"/>
    <path d="M0,0 L20,10 L20,30 L0,40 Z" class="cell_$procmux$34260"/>
    <g s:x="0" s:y="10" s:pid="A"/>
    <g s:x="0" s:y="30" s:pid="B"/>
    <g s:x="10" s:y="35" s:pid="S"/>
    <g s:x="20" s:y="20" s:pid="Y"/>
  </g>
  <g s:type="mux" transform="translate(1197.3333333333333,313.5)" s:width="20" s:height="40" id="cell_$procmux$34269">
    <s:alias val="$pmux"/>
    <s:alias val="$mux"/>
    <s:alias val="$_MUX_"/>
    <path d="M0,0 L20,10 L20,30 L0,40 Z" class="cell_$procmux$34269"/>
    <g s:x="0" s:y="10" s:pid="A"/>
    <g s:x="0" s:y="30" s:pid="B"/>
    <g s:x="10" s:y="35" s:pid="S"/>
    <g s:x="20" s:y="20" s:pid="Y"/>
  </g>
  <g s:type="mux" transform="translate(1279,476)" s:width="20" s:height="40" id="cell_$procmux$34275">
    <s:alias val="$pmux"/>
    <s:alias val="$mux"/>
    <s:alias val="$_MUX_"/>
    <path d="M0,0 L20,10 L20,30 L0,40 Z" class="cell_$procmux$34275"/>
    <g s:x="0" s:y="10" s:pid="A"/>
    <g s:x="0" s:y="30" s:pid="B"/>
    <g s:x="10" s:y="35" s:pid="S"/>
    <g s:x="20" s:y="20" s:pid="Y"/>
  </g>
  <g s:type="mux" transform="translate(772.3333333333334,219)" s:width="20" s:height="40" id="cell_$procmux$34284">
    <s:alias val="$pmux"/>
    <s:alias val="$mux"/>
    <s:alias val="$_MUX_"/>
    <path d="M0,0 L20,10 L20,30 L0,40 Z" class="cell_$procmux$34284"/>
    <g s:x="0" s:y="10" s:pid="A"/>
    <g s:x="0" s:y="30" s:pid="B"/>
    <g s:x="10" s:y="35" s:pid="S"/>
    <g s:x="20" s:y="20" s:pid="Y"/>
  </g>
  <g s:type="mux" transform="translate(549.3333333333334,436)" s:width="20" s:height="40" id="cell_$procmux$34287">
    <s:alias val="$pmux"/>
    <s:alias val="$mux"/>
    <s:alias val="$_MUX_"/>
    <path d="M0,0 L20,10 L20,30 L0,40 Z" class="cell_$procmux$34287"/>
    <g s:x="0" s:y="10" s:pid="A"/>
    <g s:x="0" s:y="30" s:pid="B"/>
    <g s:x="10" s:y="35" s:pid="S"/>
    <g s:x="20" s:y="20" s:pid="Y"/>
  </g>
  <g s:type="mux" transform="translate(661.6666666666666,446)" s:width="20" s:height="40" id="cell_$procmux$34296">
    <s:alias val="$pmux"/>
    <s:alias val="$mux"/>
    <s:alias val="$_MUX_"/>
    <path d="M0,0 L20,10 L20,30 L0,40 Z" class="cell_$procmux$34296"/>
    <g s:x="0" s:y="10" s:pid="A"/>
    <g s:x="0" s:y="30" s:pid="B"/>
    <g s:x="10" s:y="35" s:pid="S"/>
    <g s:x="20" s:y="20" s:pid="Y"/>
  </g>
  <g s:type="mux" transform="translate(772.3333333333334,466)" s:width="20" s:height="40" id="cell_$procmux$34302">
    <s:alias val="$pmux"/>
    <s:alias val="$mux"/>
    <s:alias val="$_MUX_"/>
    <path d="M0,0 L20,10 L20,30 L0,40 Z" class="cell_$procmux$34302"/>
    <g s:x="0" s:y="10" s:pid="A"/>
    <g s:x="0" s:y="30" s:pid="B"/>
    <g s:x="10" s:y="35" s:pid="S"/>
    <g s:x="20" s:y="20" s:pid="Y"/>
  </g>
  <g s:type="mux" transform="translate(1279,877)" s:width="20" s:height="40" id="cell_$procmux$34311">
    <s:alias val="$pmux"/>
    <s:alias val="$mux"/>
    <s:alias val="$_MUX_"/>
    <path d="M0,0 L20,10 L20,30 L0,40 Z" class="cell_$procmux$34311"/>
    <g s:x="0" s:y="10" s:pid="A"/>
    <g s:x="0" s:y="30" s:pid="B"/>
    <g s:x="10" s:y="35" s:pid="S"/>
    <g s:x="20" s:y="20" s:pid="Y"/>
  </g>
  <g s:type="mux" transform="translate(930.6666666666666,918)" s:width="20" s:height="40" id="cell_$procmux$34314">
    <s:alias val="$pmux"/>
    <s:alias val="$mux"/>
    <s:alias val="$_MUX_"/>
    <path d="M0,0 L20,10 L20,30 L0,40 Z" class="cell_$procmux$34314"/>
    <g s:x="0" s:y="10" s:pid="A"/>
    <g s:x="0" s:y="30" s:pid="B"/>
    <g s:x="10" s:y="35" s:pid="S"/>
    <g s:x="20" s:y="20" s:pid="Y"/>
  </g>
  <g s:type="mux" transform="translate(1086.6666666666667,928)" s:width="20" s:height="40" id="cell_$procmux$34326">
    <s:alias val="$pmux"/>
    <s:alias val="$mux"/>
    <s:alias val="$_MUX_"/>
    <path d="M0,0 L20,10 L20,30 L0,40 Z" class="cell_$procmux$34326"/>
    <g s:x="0" s:y="10" s:pid="A"/>
    <g s:x="0" s:y="30" s:pid="B"/>
    <g s:x="10" s:y="35" s:pid="S"/>
    <g s:x="20" s:y="20" s:pid="Y"/>
  </g>
  <g s:type="mux" transform="translate(1197.3333333333333,1027)" s:width="20" s:height="40" id="cell_$procmux$34335">
    <s:alias val="$pmux"/>
    <s:alias val="$mux"/>
    <s:alias val="$_MUX_"/>
    <path d="M0,0 L20,10 L20,30 L0,40 Z" class="cell_$procmux$34335"/>
    <g s:x="0" s:y="10" s:pid="A"/>
    <g s:x="0" s:y="30" s:pid="B"/>
    <g s:x="10" s:y="35" s:pid="S"/>
    <g s:x="20" s:y="20" s:pid="Y"/>
  </g>
  <g s:type="mux" transform="translate(1279,1109.5)" s:width="20" s:height="40" id="cell_$procmux$34341">
    <s:alias val="$pmux"/>
    <s:alias val="$mux"/>
    <s:alias val="$_MUX_"/>
    <path d="M0,0 L20,10 L20,30 L0,40 Z" class="cell_$procmux$34341"/>
    <g s:x="0" s:y="10" s:pid="A"/>
    <g s:x="0" s:y="30" s:pid="B"/>
    <g s:x="10" s:y="35" s:pid="S"/>
    <g s:x="20" s:y="20" s:pid="Y"/>
  </g>
  <g s:type="generic" transform="translate(413,726)" s:width="30" s:height="40" id="cell_Inst">
    <text x="15" y="-4" class="nodelabel cell_Inst" s:attribute="ref">Instruction_Memory</text>
    <rect width="30" height="20" s:generic="body" class="cell_Inst"/>
    <g transform="translate(0,10)" s:x="0" s:y="10" s:pid="in0" id="port_Inst~Address">
      <text x="-3" y="-4" class="inputPortLabel cell_Inst">Address</text>
    </g>
    <g transform="translate(30,10)" s:x="30" s:y="10" s:pid="out0" id="port_Inst~Instruction">
      <text x="5" y="-4" style="fill:#000; stroke:none" class="cell_Inst">Instruction</text>
    </g>
  </g>
  <g s:type="generic" transform="translate(248,726)" s:width="30" s:height="40" id="cell_PC">
    <text x="15" y="-4" class="nodelabel cell_PC" s:attribute="ref">Register</text>
    <rect width="30" height="80" s:generic="body" class="cell_PC"/>
    <g transform="translate(0,10)" s:x="0" s:y="10" s:pid="in0" id="port_PC~In">
      <text x="-3" y="-4" class="inputPortLabel cell_PC">In</text>
    </g>
    <g transform="translate(0,30)" s:x="0" s:y="10" s:pid="in0" id="port_PC~clk">
      <text x="-3" y="-4" class="inputPortLabel cell_PC">clk</text>
    </g>
    <g transform="translate(0,50)" s:x="0" s:y="10" s:pid="in0" id="port_PC~reset">
      <text x="-3" y="-4" class="inputPortLabel cell_PC">reset</text>
    </g>
    <g transform="translate(0,70)" s:x="0" s:y="10" s:pid="in0" id="port_PC~writeEnable">
      <text x="-3" y="-4" class="inputPortLabel cell_PC">writeEnable</text>
    </g>
    <g transform="translate(30,10)" s:x="30" s:y="10" s:pid="out0" id="port_PC~Out">
      <text x="5" y="-4" style="fill:#000; stroke:none" class="cell_PC">Out</text>
    </g>
  </g>
  <g s:type="generic" transform="translate(1099,1046.5)" s:width="30" s:height="40" id="cell_RA">
    <text x="15" y="-4" class="nodelabel cell_RA" s:attribute="ref">Register</text>
    <rect width="30" height="80" s:generic="body" class="cell_RA"/>
    <g transform="translate(0,10)" s:x="0" s:y="10" s:pid="in0" id="port_RA~In">
      <text x="-3" y="-4" class="inputPortLabel cell_RA">In</text>
    </g>
    <g transform="translate(0,30)" s:x="0" s:y="10" s:pid="in0" id="port_RA~clk">
      <text x="-3" y="-4" class="inputPortLabel cell_RA">clk</text>
    </g>
    <g transform="translate(0,50)" s:x="0" s:y="10" s:pid="in0" id="port_RA~reset">
      <text x="-3" y="-4" class="inputPortLabel cell_RA">reset</text>
    </g>
    <g transform="translate(0,70)" s:x="0" s:y="10" s:pid="in0" id="port_RA~writeEnable">
      <text x="-3" y="-4" class="inputPortLabel cell_RA">writeEnable</text>
    </g>
    <g transform="translate(30,10)" s:x="30" s:y="10" s:pid="out0" id="port_RA~Out">
      <text x="5" y="-4" style="fill:#000; stroke:none" class="cell_RA">Out</text>
    </g>
  </g>
  <g s:type="generic" transform="translate(449,313)" s:width="30" s:height="40" id="cell_RegFile">
    <text x="15" y="-4" class="nodelabel cell_RegFile" s:attribute="ref">Register_File</text>
    <rect width="30" height="140" s:generic="body" class="cell_RegFile"/>
    <g transform="translate(0,10)" s:x="0" s:y="10" s:pid="in0" id="port_RegFile~RegWrite_Enable">
      <text x="-3" y="-4" class="inputPortLabel cell_RegFile">RegWrite_Enable</text>
    </g>
    <g transform="translate(0,30)" s:x="0" s:y="10" s:pid="in0" id="port_RegFile~RegisterData1">
      <text x="-3" y="-4" class="inputPortLabel cell_RegFile">RegisterData1</text>
    </g>
    <g transform="translate(0,50)" s:x="0" s:y="10" s:pid="in0" id="port_RegFile~RegisterData2">
      <text x="-3" y="-4" class="inputPortLabel cell_RegFile">RegisterData2</text>
    </g>
    <g transform="translate(0,70)" s:x="0" s:y="10" s:pid="in0" id="port_RegFile~WriteData">
      <text x="-3" y="-4" class="inputPortLabel cell_RegFile">WriteData</text>
    </g>
    <g transform="translate(0,90)" s:x="0" s:y="10" s:pid="in0" id="port_RegFile~WriteRegister">
      <text x="-3" y="-4" class="inputPortLabel cell_RegFile">WriteRegister</text>
    </g>
    <g transform="translate(0,110)" s:x="0" s:y="10" s:pid="in0" id="port_RegFile~clk">
      <text x="-3" y="-4" class="inputPortLabel cell_RegFile">clk</text>
    </g>
    <g transform="translate(0,130)" s:x="0" s:y="10" s:pid="in0" id="port_RegFile~reset">
      <text x="-3" y="-4" class="inputPortLabel cell_RegFile">reset</text>
    </g>
    <g transform="translate(30,10)" s:x="30" s:y="10" s:pid="out0" id="port_RegFile~Data1">
      <text x="5" y="-4" style="fill:#000; stroke:none" class="cell_RegFile">Data1</text>
    </g>
    <g transform="translate(30,30)" s:x="30" s:y="10" s:pid="out0" id="port_RegFile~Data2">
      <text x="5" y="-4" style="fill:#000; stroke:none" class="cell_RegFile">Data2</text>
    </g>
  </g>
  <g s:type="generic" transform="translate(924.6,495.5)" s:width="30" s:height="40" id="cell_alu">
    <text x="15" y="-4" class="nodelabel cell_alu" s:attribute="ref">ALU</text>
    <rect width="30" height="60" s:generic="body" class="cell_alu"/>
    <g transform="translate(0,10)" s:x="0" s:y="10" s:pid="in0" id="port_alu~input1">
      <text x="-3" y="-4" class="inputPortLabel cell_alu">input1</text>
    </g>
    <g transform="translate(0,30)" s:x="0" s:y="10" s:pid="in0" id="port_alu~input2">
      <text x="-3" y="-4" class="inputPortLabel cell_alu">input2</text>
    </g>
    <g transform="translate(0,50)" s:x="0" s:y="10" s:pid="in0" id="port_alu~op">
      <text x="-3" y="-4" class="inputPortLabel cell_alu">op</text>
    </g>
    <g transform="translate(30,10)" s:x="30" s:y="10" s:pid="out0" id="port_alu~result">
      <text x="5" y="-4" style="fill:#000; stroke:none" class="cell_alu">result</text>
    </g>
    <g transform="translate(30,30)" s:x="30" s:y="10" s:pid="out0" id="port_alu~zero">
      <text x="5" y="-4" style="fill:#000; stroke:none" class="cell_alu">zero</text>
    </g>
  </g>
  <g s:type="generic" transform="translate(941,83.5)" s:width="30" s:height="40" id="cell_ram">
    <text x="15" y="-4" class="nodelabel cell_ram" s:attribute="ref">Data_Memory</text>
    <rect width="30" height="100" s:generic="body" class="cell_ram"/>
    <g transform="translate(0,10)" s:x="0" s:y="10" s:pid="in0" id="port_ram~Address">
      <text x="-3" y="-4" class="inputPortLabel cell_ram">Address</text>
    </g>
    <g transform="translate(0,30)" s:x="0" s:y="10" s:pid="in0" id="port_ram~WriteData">
      <text x="-3" y="-4" class="inputPortLabel cell_ram">WriteData</text>
    </g>
    <g transform="translate(0,50)" s:x="0" s:y="10" s:pid="in0" id="port_ram~clk">
      <text x="-3" y="-4" class="inputPortLabel cell_ram">clk</text>
    </g>
    <g transform="translate(0,70)" s:x="0" s:y="10" s:pid="in0" id="port_ram~reset">
      <text x="-3" y="-4" class="inputPortLabel cell_ram">reset</text>
    </g>
    <g transform="translate(0,90)" s:x="0" s:y="10" s:pid="in0" id="port_ram~writeEnable">
      <text x="-3" y="-4" class="inputPortLabel cell_ram">writeEnable</text>
    </g>
    <g transform="translate(30,10)" s:x="30" s:y="10" s:pid="out0" id="port_ram~Data">
      <text x="5" y="-4" style="fill:#000; stroke:none" class="cell_ram">Data</text>
    </g>
  </g>
  <g s:type="inputExt" transform="translate(77,368.5)" s:width="30" s:height="20" id="cell_clk">
    <text x="15" y="-4" class="nodelabel cell_clk" s:attribute="ref">clk</text>
    <s:alias val="$_inputExt_"/>
    <path d="M0,0 L0,20 L15,20 L30,10 L15,0 Z" class="cell_clk"/>
    <g s:x="28" s:y="10" s:pid="Y"/>
  </g>
  <g s:type="inputExt" transform="translate(77,433.5)" s:width="30" s:height="20" id="cell_reset">
    <text x="15" y="-4" class="nodelabel cell_reset" s:attribute="ref">reset</text>
    <s:alias val="$_inputExt_"/>
    <path d="M0,0 L0,20 L15,20 L30,10 L15,0 Z" class="cell_reset"/>
    <g s:x="28" s:y="10" s:pid="Y"/>
  </g>
  <g s:type="inputExt" transform="translate(77,786.5)" s:width="30" s:height="20" id="cell_PC_Enable">
    <text x="15" y="-4" class="nodelabel cell_PC_Enable" s:attribute="ref">PC_Enable</text>
    <s:alias val="$_inputExt_"/>
    <path d="M0,0 L0,20 L15,20 L30,10 L15,0 Z" class="cell_PC_Enable"/>
    <g s:x="28" s:y="10" s:pid="Y"/>
  </g>
  <g s:type="inputExt" transform="translate(929,1107)" s:width="30" s:height="20" id="cell_RA_Enable">
    <text x="15" y="-4" class="nodelabel cell_RA_Enable" s:attribute="ref">RA_Enable</text>
    <s:alias val="$_inputExt_"/>
    <path d="M0,0 L0,20 L15,20 L30,10 L15,0 Z" class="cell_RA_Enable"/>
    <g s:x="28" s:y="10" s:pid="Y"/>
  </g>
  <g s:type="inputExt" transform="translate(1184,972)" s:width="30" s:height="20" id="cell_Reg_const4">
    <text x="15" y="-4" class="nodelabel cell_Reg_const4" s:attribute="ref">Reg_const4</text>
    <s:alias val="$_inputExt_"/>
    <path d="M0,0 L0,20 L15,20 L30,10 L15,0 Z" class="cell_Reg_const4"/>
    <g s:x="28" s:y="10" s:pid="Y"/>
  </g>
  <g s:type="inputExt" transform="translate(208,313.5)" s:width="30" s:height="20" id="cell_RegWrite_Enable">
    <text x="15" y="-4" class="nodelabel cell_RegWrite_Enable" s:attribute="ref">RegWrite_Enable</text>
    <s:alias val="$_inputExt_"/>
    <path d="M0,0 L0,20 L15,20 L30,10 L15,0 Z" class="cell_RegWrite_Enable"/>
    <g s:x="28" s:y="10" s:pid="Y"/>
  </g>
  <g s:type="inputExt" transform="translate(636,313.5)" s:width="30" s:height="20" id="cell_Reg_Imm">
    <text x="15" y="-4" class="nodelabel cell_Reg_Imm" s:attribute="ref">Reg_Imm</text>
    <s:alias val="$_inputExt_"/>
    <path d="M0,0 L0,20 L15,20 L30,10 L15,0 Z" class="cell_Reg_Imm"/>
    <g s:x="28" s:y="10" s:pid="Y"/>
  </g>
  <g s:type="inputExt" transform="translate(749,164)" s:width="30" s:height="20" id="cell_MemWrite_Enable">
    <text x="15" y="-4" class="nodelabel cell_MemWrite_Enable" s:attribute="ref">MemWrite_Enable</text>
    <s:alias val="$_inputExt_"/>
    <path d="M0,0 L0,20 L15,20 L30,10 L15,0 Z" class="cell_MemWrite_Enable"/>
    <g s:x="28" s:y="10" s:pid="Y"/>
  </g>
  <g s:type="inputExt" transform="translate(636,1056)" s:width="30" s:height="20" id="cell_PC_RA_ALU_REG">
    <text x="15" y="-4" class="nodelabel cell_PC_RA_ALU_REG" s:attribute="ref">PC_RA_ALU_REG</text>
    <s:alias val="$_inputExt_"/>
    <path d="M0,0 L0,20 L15,20 L30,10 L15,0 Z" class="cell_PC_RA_ALU_REG"/>
    <g s:x="28" s:y="10" s:pid="Y"/>
  </g>
  <g s:type="inputExt" transform="translate(749,776)" s:width="30" s:height="20" id="cell_Alu_Move_Mem">
    <text x="15" y="-4" class="nodelabel cell_Alu_Move_Mem" s:attribute="ref">Alu_Move_Mem</text>
    <s:alias val="$_inputExt_"/>
    <path d="M0,0 L0,20 L15,20 L30,10 L15,0 Z" class="cell_Alu_Move_Mem"/>
    <g s:x="28" s:y="10" s:pid="Y"/>
  </g>
  <g s:type="inputExt" transform="translate(208,596)" s:width="30" s:height="20" id="cell_Reg_4_PC">
    <text x="15" y="-4" class="nodelabel cell_Reg_4_PC" s:attribute="ref">Reg_4_PC</text>
    <s:alias val="$_inputExt_"/>
    <path d="M0,0 L0,20 L15,20 L30,10 L15,0 Z" class="cell_Reg_4_PC"/>
    <g s:x="28" s:y="10" s:pid="Y"/>
  </g>
  <g s:type="inputExt" transform="translate(749,536)" s:width="30" s:height="20" id="cell_ALUOP">
    <text x="15" y="-4" class="nodelabel cell_ALUOP" s:attribute="ref">ALUOP</text>
    <s:alias val="$_inputExt_"/>
    <path d="M0,0 L0,20 L15,20 L30,10 L15,0 Z" class="cell_ALUOP"/>
    <g s:x="28" s:y="10" s:pid="Y"/>
  </g>
  <g s:type="outputExt" transform="translate(1279,43)" s:width="30" s:height="20" id="cell_zero_flag">
    <text x="15" y="-4" class="nodelabel cell_zero_flag" s:attribute="ref">zero_flag</text>
    <s:alias val="$_outputExt_"/>
    <path d="M30,0 L30,20 L15,20 L0,10 L15,0 Z" class="cell_zero_flag"/>
    <g s:x="0" s:y="10" s:pid="A"/>
  </g>
  <g s:type="outputExt" transform="translate(1279,588.5)" s:width="30" s:height="20" id="cell_opCode">
    <text x="15" y="-4" class="nodelabel cell_opCode" s:attribute="ref">opCode</text>
    <s:alias val="$_outputExt_"/>
    <path d="M30,0 L30,20 L15,20 L0,10 L15,0 Z" class="cell_opCode"/>
    <g s:x="0" s:y="10" s:pid="A"/>
  </g>
  <g s:type="constant" transform="translate(12,1021.5)" s:width="30" s:height="20" id="cell_1">
    <text x="15" y="-4" class="nodelabel cell_1" s:attribute="ref">1</text>
    <s:alias val="$_constant_"/>
    <rect width="30" height="20" class="cell_1"/>
    <g s:x="30" s:y="10" s:pid="Y"/>
  </g>
  <g s:type="constant" transform="translate(208,661)" s:width="30" s:height="20" id="cell_10">
    <text x="15" y="-4" class="nodelabel cell_10" s:attribute="ref">10</text>
    <s:alias val="$_constant_"/>
    <rect width="30" height="20" class="cell_10"/>
    <g s:x="30" s:y="10" s:pid="Y"/>
  </g>
  <g s:type="constant" transform="translate(636,969)" s:width="30" s:height="20" id="cell_11">
    <text x="15" y="-4" class="nodelabel cell_11" s:attribute="ref">11</text>
    <s:alias val="$_constant_"/>
    <rect width="30" height="20" class="cell_11"/>
    <g s:x="30" s:y="10" s:pid="Y"/>
  </g>
  <g s:type="constant" transform="translate(546,249)" s:width="30" s:height="20" id="cell_0000">
    <text x="15" y="-4" class="nodelabel cell_0000" s:attribute="ref">0x0</text>
    <s:alias val="$_constant_"/>
    <rect width="30" height="20" class="cell_0000"/>
    <g s:x="30" s:y="10" s:pid="Y"/>
  </g>
  <g s:type="constant" transform="translate(546,661)" s:width="30" s:height="20" id="cell_00000100">
    <text x="15" y="-4" class="nodelabel cell_00000100" s:attribute="ref">0x4</text>
    <s:alias val="$_constant_"/>
    <rect width="30" height="20" class="cell_00000100"/>
    <g s:x="30" s:y="10" s:pid="Y"/>
  </g>
  <g s:type="join" transform="translate(667,228.5)" s:width="4" s:height="40" id="cell_$join$,98,99,100,101,196,197,198,199,">
    <rect width="5" height="40" class="splitjoinBody" s:generic="body"/>
    <s:alias val="$_join_"/>
    <g s:x="5" s:y="20" s:pid="out"/>
    <g transform="translate(0,10)" s:x="0" s:y="10" s:pid="in0">
      <text x="-3" y="-4" class="inputPortLabel">0:3</text>
    </g>
    <g transform="translate(0,30)" s:x="0" s:y="10" s:pid="in0">
      <text x="-3" y="-4" class="inputPortLabel">4:7</text>
    </g>
  </g>
  <g s:type="split" transform="translate(552,716)" s:width="5" s:height="40" id="cell_$split$,98,99,100,101,20,21,22,23,">
    <rect width="5" height="80" class="splitjoinBody" s:generic="body"/>
    <s:alias val="$_split_"/>
    <g s:x="0" s:y="20" s:pid="in"/>
    <g transform="translate(4,10)" s:x="4" s:y="10" s:pid="out0">
      <text x="5" y="-4">0:3</text>
    </g>
    <g transform="translate(4,30)" s:x="4" s:y="10" s:pid="out0">
      <text x="5" y="-4">2:3</text>
    </g>
    <g transform="translate(4,50)" s:x="4" s:y="10" s:pid="out0">
      <text x="5" y="-4">0:1</text>
    </g>
    <g transform="translate(4,70)" s:x="4" s:y="10" s:pid="out0">
      <text x="5" y="-4">4:7</text>
    </g>
  </g>
  <line x1="279" x2="308" y1="736.5" y2="736.5" class="net_24,25,26,27,28,29,30,31"/>
  <line x1="308" x2="308" y1="736.5" y2="862" class="net_24,25,26,27,28,29,30,31"/>
  <line x1="308" x2="52" y1="862" y2="862" class="net_24,25,26,27,28,29,30,31"/>
  <line x1="52" x2="52" y1="862" y2="1016.5" class="net_24,25,26,27,28,29,30,31"/>
  <line x1="52" x2="91.33333333333333" y1="1016.5" y2="1016.5" class="net_24,25,26,27,28,29,30,31"/>
  <line x1="279" x2="308" y1="736.5" y2="736.5" class="net_24,25,26,27,28,29,30,31"/>
  <line x1="308" x2="308" y1="736.5" y2="466" class="net_24,25,26,27,28,29,30,31"/>
  <circle cx="308" cy="736.5" r="2" style="fill:#000" class="net_24,25,26,27,28,29,30,31"/>
  <line x1="308" x2="549.3333333333334" y1="466" y2="466" class="net_24,25,26,27,28,29,30,31"/>
  <line x1="279" x2="413" y1="736.5" y2="736.5" class="net_24,25,26,27,28,29,30,31"/>
  <line x1="42" x2="91.33333333333333" y1="1031.5" y2="1031.5" class="net_184"/>
  <line x1="42" x2="62" y1="1031.5" y2="1031.5" class="net_184"/>
  <line x1="62" x2="62" y1="1031.5" y2="872" class="net_184"/>
  <circle cx="62" cy="1031.5" r="2" style="fill:#000" class="net_184"/>
  <line x1="62" x2="1088" y1="872" y2="872" class="net_184"/>
  <line x1="42" x2="62" y1="1031.5" y2="1031.5" class="net_184"/>
  <line x1="62" x2="62" y1="1031.5" y2="1170.5" class="net_184"/>
  <line x1="62" x2="1088" y1="1170.5" y2="1170.5" class="net_184"/>
  <line x1="42" x2="62" y1="1031.5" y2="1031.5" class="net_184"/>
  <line x1="62" x2="62" y1="1031.5" y2="872" class="net_184"/>
  <line x1="62" x2="338" y1="872" y2="872" class="net_184"/>
  <line x1="338" x2="338" y1="872" y2="837" class="net_184"/>
  <circle cx="338" cy="872" r="2" style="fill:#000" class="net_184"/>
  <line x1="338" x2="550.6666666666666" y1="837" y2="837" class="net_184"/>
  <line x1="777" x2="849" y1="786" y2="786" class="net_12,13"/>
  <line x1="849" x2="849" y1="786" y2="568.5" class="net_12,13"/>
  <circle cx="849" cy="786" r="2" style="fill:#000" class="net_12,13"/>
  <line x1="849" x2="1199" y1="568.5" y2="568.5" class="net_12,13"/>
  <line x1="777" x2="849" y1="786" y2="786" class="net_12,13"/>
  <line x1="849" x2="849" y1="786" y2="857" class="net_12,13"/>
  <line x1="849" x2="1088" y1="857" y2="857" class="net_12,13"/>
  <line x1="777" x2="849" y1="786" y2="786" class="net_12,13"/>
  <line x1="849" x2="849" y1="786" y2="791" class="net_12,13"/>
  <circle cx="849" cy="791" r="2" style="fill:#000" class="net_12,13"/>
  <line x1="849" x2="932" y1="791" y2="791" class="net_12,13"/>
  <line x1="238" x2="318" y1="671" y2="671" class="net_186,187"/>
  <line x1="318" x2="318" y1="671" y2="806" class="net_186,187"/>
  <circle cx="318" cy="671" r="2" style="fill:#000" class="net_186,187"/>
  <circle cx="318" cy="806" r="2" style="fill:#000" class="net_186,187"/>
  <line x1="318" x2="932" y1="806" y2="806" class="net_186,187"/>
  <line x1="238" x2="318" y1="671" y2="671" class="net_186,187"/>
  <line x1="318" x2="318" y1="671" y2="1009" class="net_186,187"/>
  <line x1="318" x2="932" y1="1009" y2="1009" class="net_186,187"/>
  <line x1="238" x2="318" y1="671" y2="671" class="net_186,187"/>
  <line x1="318" x2="318" y1="671" y2="648.5" class="net_186,187"/>
  <line x1="318" x2="434" y1="648.5" y2="648.5" class="net_186,187"/>
  <line x1="664" x2="734" y1="1066" y2="1066" class="net_10,11"/>
  <line x1="734" x2="734" y1="1066" y2="1185.5" class="net_10,11"/>
  <circle cx="734" cy="1066" r="2" style="fill:#000" class="net_10,11"/>
  <line x1="734" x2="1199" y1="1185.5" y2="1185.5" class="net_10,11"/>
  <line x1="664" x2="734" y1="1066" y2="1066" class="net_10,11"/>
  <line x1="734" x2="734" y1="1066" y2="1155.5" class="net_10,11"/>
  <circle cx="734" cy="1155.5" r="2" style="fill:#000" class="net_10,11"/>
  <line x1="734" x2="1088" y1="1155.5" y2="1155.5" class="net_10,11"/>
  <line x1="664" x2="734" y1="1066" y2="1066" class="net_10,11"/>
  <line x1="734" x2="734" y1="1066" y2="994" class="net_10,11"/>
  <circle cx="734" cy="994" r="2" style="fill:#000" class="net_10,11"/>
  <line x1="734" x2="932" y1="994" y2="994" class="net_10,11"/>
  <line x1="664" x2="734" y1="1066" y2="1066" class="net_10,11"/>
  <line x1="734" x2="734" y1="1066" y2="964" class="net_10,11"/>
  <line x1="734" x2="773.6666666666666" y1="964" y2="964" class="net_10,11"/>
  <line x1="666" x2="773.6666666666666" y1="979" y2="979" class="net_191,192"/>
  <line x1="666" x2="724" y1="979" y2="979" class="net_191,192"/>
  <line x1="724" x2="724" y1="979" y2="907" class="net_191,192"/>
  <circle cx="724" cy="979" r="2" style="fill:#000" class="net_191,192"/>
  <line x1="724" x2="1279" y1="907" y2="907" class="net_191,192"/>
  <line x1="236" x2="328" y1="606" y2="606" class="net_14,15"/>
  <line x1="328" x2="328" y1="606" y2="852" class="net_14,15"/>
  <line x1="328" x2="660" y1="852" y2="852" class="net_14,15"/>
  <line x1="236" x2="328" y1="606" y2="606" class="net_14,15"/>
  <line x1="328" x2="328" y1="606" y2="822" class="net_14,15"/>
  <circle cx="328" cy="822" r="2" style="fill:#000" class="net_14,15"/>
  <line x1="328" x2="550.6666666666666" y1="822" y2="822" class="net_14,15"/>
  <line x1="236" x2="328" y1="606" y2="606" class="net_14,15"/>
  <line x1="328" x2="328" y1="606" y2="633.5" class="net_14,15"/>
  <circle cx="328" cy="633.5" r="2" style="fill:#000" class="net_14,15"/>
  <line x1="328" x2="434" y1="633.5" y2="633.5" class="net_14,15"/>
  <line x1="955.6" x2="1017" y1="506" y2="506" class="net_50,51,52,53,54,55,56,57"/>
  <line x1="1017" x2="1017" y1="506" y2="74" class="net_50,51,52,53,54,55,56,57"/>
  <circle cx="1017" cy="506" r="2" style="fill:#000" class="net_50,51,52,53,54,55,56,57"/>
  <line x1="1017" x2="1086.6666666666667" y1="74" y2="74" class="net_50,51,52,53,54,55,56,57"/>
  <line x1="955.6" x2="1279" y1="506" y2="506" class="net_50,51,52,53,54,55,56,57"/>
  <line x1="955.6" x2="1017" y1="506" y2="506" class="net_50,51,52,53,54,55,56,57"/>
  <line x1="1017" x2="1017" y1="506" y2="958" class="net_50,51,52,53,54,55,56,57"/>
  <line x1="1017" x2="1086.6666666666667" y1="958" y2="958" class="net_50,51,52,53,54,55,56,57"/>
  <line x1="972" x2="1086.6666666666667" y1="94" y2="94" class="net_58,59,60,61,62,63,64,65"/>
  <line x1="954" x2="1096.6666666666667" y1="798.5" y2="798.5" class="net_42"/>
  <line x1="1096.6666666666667" x2="1096.6666666666667" y1="798.5" y2="99" class="net_42"/>
  <line x1="1106.6666666666667" x2="1159" y1="84" y2="84" class="net_66,67,68,69,70,71,72,73"/>
  <line x1="1159" x2="1159" y1="84" y2="323.5" class="net_66,67,68,69,70,71,72,73"/>
  <line x1="1159" x2="1197.3333333333333" y1="323.5" y2="323.5" class="net_66,67,68,69,70,71,72,73"/>
  <line x1="480" x2="1197.3333333333333" y1="343.5" y2="343.5" class="net_74,75,76,77,78,79,80,81"/>
  <line x1="480" x2="521" y1="343.5" y2="343.5" class="net_74,75,76,77,78,79,80,81"/>
  <line x1="521" x2="521" y1="343.5" y2="215.5" class="net_74,75,76,77,78,79,80,81"/>
  <line x1="521" x2="724" y1="215.5" y2="215.5" class="net_74,75,76,77,78,79,80,81"/>
  <line x1="724" x2="724" y1="215.5" y2="229" class="net_74,75,76,77,78,79,80,81"/>
  <circle cx="521" cy="343.5" r="2" style="fill:#000" class="net_74,75,76,77,78,79,80,81"/>
  <circle cx="521" cy="215.5" r="2" style="fill:#000" class="net_74,75,76,77,78,79,80,81"/>
  <line x1="724" x2="772.3333333333334" y1="229" y2="229" class="net_74,75,76,77,78,79,80,81"/>
  <line x1="480" x2="521" y1="343.5" y2="343.5" class="net_74,75,76,77,78,79,80,81"/>
  <line x1="521" x2="521" y1="343.5" y2="948" class="net_74,75,76,77,78,79,80,81"/>
  <line x1="521" x2="930.6666666666666" y1="948" y2="948" class="net_74,75,76,77,78,79,80,81"/>
  <line x1="480" x2="521" y1="343.5" y2="343.5" class="net_74,75,76,77,78,79,80,81"/>
  <line x1="521" x2="521" y1="343.5" y2="94" class="net_74,75,76,77,78,79,80,81"/>
  <line x1="521" x2="941" y1="94" y2="94" class="net_74,75,76,77,78,79,80,81"/>
  <line x1="1110" x2="1159" y1="864.5" y2="864.5" class="net_41"/>
  <line x1="1159" x2="1159" y1="864.5" y2="548.5" class="net_41"/>
  <line x1="1159" x2="1207.3333333333333" y1="548.5" y2="548.5" class="net_41"/>
  <line x1="1207.3333333333333" x2="1207.3333333333333" y1="548.5" y2="348.5" class="net_41"/>
  <line x1="1217.3333333333333" x2="1254" y1="333.5" y2="333.5" class="net_82,83,84,85,86,87,88,89"/>
  <line x1="1254" x2="1254" y1="333.5" y2="486" class="net_82,83,84,85,86,87,88,89"/>
  <line x1="1254" x2="1279" y1="486" y2="486" class="net_82,83,84,85,86,87,88,89"/>
  <line x1="1224" x2="1289" y1="568.5" y2="568.5" class="net_40"/>
  <line x1="1289" x2="1289" y1="568.5" y2="511" class="net_40"/>
  <line x1="673" x2="772.3333333333334" y1="249" y2="249" class="net_98,99,100,101,196,197,198,199"/>
  <line x1="664" x2="782.3333333333334" y1="323.5" y2="323.5" class="net_8"/>
  <line x1="782.3333333333334" x2="782.3333333333334" y1="323.5" y2="254" class="net_8"/>
  <line x1="480" x2="531" y1="323.5" y2="323.5" class="net_110,111,112,113,114,115,116,117"/>
  <line x1="531" x2="531" y1="323.5" y2="446" class="net_110,111,112,113,114,115,116,117"/>
  <circle cx="531" cy="323.5" r="2" style="fill:#000" class="net_110,111,112,113,114,115,116,117"/>
  <circle cx="531" cy="446" r="2" style="fill:#000" class="net_110,111,112,113,114,115,116,117"/>
  <line x1="531" x2="549.3333333333334" y1="446" y2="446" class="net_110,111,112,113,114,115,116,117"/>
  <line x1="480" x2="531" y1="323.5" y2="323.5" class="net_110,111,112,113,114,115,116,117"/>
  <line x1="531" x2="531" y1="323.5" y2="496" class="net_110,111,112,113,114,115,116,117"/>
  <line x1="531" x2="772.3333333333334" y1="496" y2="496" class="net_110,111,112,113,114,115,116,117"/>
  <line x1="480" x2="531" y1="323.5" y2="323.5" class="net_110,111,112,113,114,115,116,117"/>
  <line x1="531" x2="531" y1="323.5" y2="114" class="net_110,111,112,113,114,115,116,117"/>
  <line x1="531" x2="941" y1="114" y2="114" class="net_110,111,112,113,114,115,116,117"/>
  <line x1="456" x2="559.3333333333334" y1="641" y2="641" class="net_49"/>
  <line x1="559.3333333333334" x2="559.3333333333334" y1="641" y2="471" class="net_49"/>
  <line x1="569.3333333333334" x2="661.6666666666666" y1="456" y2="456" class="net_118,119,120,121,122,123,124,125"/>
  <line x1="576" x2="596" y1="671" y2="671" class="net_200,201,202,203,204,205,206,207"/>
  <line x1="596" x2="596" y1="671" y2="476" class="net_200,201,202,203,204,205,206,207"/>
  <line x1="596" x2="661.6666666666666" y1="476" y2="476" class="net_200,201,202,203,204,205,206,207"/>
  <line x1="572.6666666666666" x2="671.6666666666666" y1="829.5" y2="829.5" class="net_48"/>
  <line x1="671.6666666666666" x2="671.6666666666666" y1="829.5" y2="481" class="net_48"/>
  <line x1="681.6666666666666" x2="724" y1="466" y2="466" class="net_126,127,128,129,130,131,132,133"/>
  <line x1="724" x2="724" y1="466" y2="476" class="net_126,127,128,129,130,131,132,133"/>
  <line x1="724" x2="772.3333333333334" y1="476" y2="476" class="net_126,127,128,129,130,131,132,133"/>
  <line x1="685" x2="724" y1="852" y2="852" class="net_47"/>
  <line x1="724" x2="724" y1="852" y2="516" class="net_47"/>
  <line x1="724" x2="782.3333333333334" y1="516" y2="516" class="net_47"/>
  <line x1="782.3333333333334" x2="782.3333333333334" y1="516" y2="501" class="net_47"/>
  <line x1="557" x2="626" y1="746.5" y2="746.5" class="net_100,101"/>
  <line x1="626" x2="626" y1="746.5" y2="887" class="net_100,101"/>
  <line x1="626" x2="1279" y1="887" y2="887" class="net_100,101"/>
  <line x1="1212" x2="1289" y1="982" y2="982" class="net_6"/>
  <line x1="1289" x2="1289" y1="982" y2="912" class="net_6"/>
  <line x1="113.33333333333333" x2="328" y1="1024" y2="1024" class="net_32,33,34,35,36,37,38,39"/>
  <line x1="328" x2="328" y1="1024" y2="928" class="net_32,33,34,35,36,37,38,39"/>
  <circle cx="328" cy="1024" r="2" style="fill:#000" class="net_32,33,34,35,36,37,38,39"/>
  <line x1="328" x2="930.6666666666666" y1="928" y2="928" class="net_32,33,34,35,36,37,38,39"/>
  <line x1="113.33333333333333" x2="151" y1="1024" y2="1024" class="net_32,33,34,35,36,37,38,39"/>
  <line x1="151" x2="151" y1="1024" y2="1139.5" class="net_32,33,34,35,36,37,38,39"/>
  <circle cx="151" cy="1024" r="2" style="fill:#000" class="net_32,33,34,35,36,37,38,39"/>
  <line x1="151" x2="1279" y1="1139.5" y2="1139.5" class="net_32,33,34,35,36,37,38,39"/>
  <line x1="113.33333333333333" x2="1017" y1="1024" y2="1024" class="net_32,33,34,35,36,37,38,39"/>
  <line x1="1017" x2="1017" y1="1024" y2="1057" class="net_32,33,34,35,36,37,38,39"/>
  <line x1="1017" x2="1099" y1="1057" y2="1057" class="net_32,33,34,35,36,37,38,39"/>
  <line x1="795.6666666666666" x2="940.6666666666666" y1="971.5" y2="971.5" class="net_46"/>
  <line x1="940.6666666666666" x2="940.6666666666666" y1="971.5" y2="953" class="net_46"/>
  <line x1="950.6666666666666" x2="1086.6666666666667" y1="938" y2="938" class="net_144,145,146,147,148,149,150,151"/>
  <line x1="954" x2="1096.6666666666667" y1="1001.5" y2="1001.5" class="net_45"/>
  <line x1="1096.6666666666667" x2="1096.6666666666667" y1="1001.5" y2="963" class="net_45"/>
  <line x1="1106.6666666666667" x2="1159" y1="948" y2="948" class="net_152,153,154,155,156,157,158,159"/>
  <line x1="1159" x2="1159" y1="948" y2="1037" class="net_152,153,154,155,156,157,158,159"/>
  <line x1="1159" x2="1197.3333333333333" y1="1037" y2="1037" class="net_152,153,154,155,156,157,158,159"/>
  <line x1="1130" x2="1197.3333333333333" y1="1057" y2="1057" class="net_160,161,162,163,164,165,166,167"/>
  <line x1="1110" x2="1207.3333333333333" y1="1163" y2="1163" class="net_44"/>
  <line x1="1207.3333333333333" x2="1207.3333333333333" y1="1163" y2="1062" class="net_44"/>
  <line x1="1217.3333333333333" x2="1254" y1="1047" y2="1047" class="net_168,169,170,171,172,173,174,175"/>
  <line x1="1254" x2="1254" y1="1047" y2="1119.5" class="net_168,169,170,171,172,173,174,175"/>
  <line x1="1254" x2="1279" y1="1119.5" y2="1119.5" class="net_168,169,170,171,172,173,174,175"/>
  <line x1="1224" x2="1289" y1="1185.5" y2="1185.5" class="net_43"/>
  <line x1="1289" x2="1289" y1="1185.5" y2="1144.5" class="net_43"/>
  <line x1="1299" x2="1343" y1="1129.5" y2="1129.5" class="net_176,177,178,179,180,181,182,183"/>
  <line x1="1343" x2="1343" y1="1129.5" y2="1205.5" class="net_176,177,178,179,180,181,182,183"/>
  <line x1="1343" x2="141" y1="1205.5" y2="1205.5" class="net_176,177,178,179,180,181,182,183"/>
  <line x1="141" x2="141" y1="1205.5" y2="736.5" class="net_176,177,178,179,180,181,182,183"/>
  <line x1="141" x2="248" y1="736.5" y2="736.5" class="net_176,177,178,179,180,181,182,183"/>
  <line x1="105" x2="171" y1="378.5" y2="378.5" class="net_2"/>
  <line x1="171" x2="171" y1="378.5" y2="756.5" class="net_2"/>
  <circle cx="171" cy="378.5" r="2" style="fill:#000" class="net_2"/>
  <circle cx="171" cy="756.5" r="2" style="fill:#000" class="net_2"/>
  <line x1="171" x2="248" y1="756.5" y2="756.5" class="net_2"/>
  <line x1="105" x2="171" y1="378.5" y2="378.5" class="net_2"/>
  <line x1="171" x2="171" y1="378.5" y2="1035" class="net_2"/>
  <line x1="171" x2="1007" y1="1035" y2="1035" class="net_2"/>
  <line x1="1007" x2="1007" y1="1035" y2="1077" class="net_2"/>
  <line x1="1007" x2="1099" y1="1077" y2="1077" class="net_2"/>
  <line x1="105" x2="308" y1="378.5" y2="378.5" class="net_2"/>
  <line x1="308" x2="308" y1="378.5" y2="423.5" class="net_2"/>
  <line x1="308" x2="449" y1="423.5" y2="423.5" class="net_2"/>
  <line x1="105" x2="171" y1="378.5" y2="378.5" class="net_2"/>
  <line x1="171" x2="171" y1="378.5" y2="132" class="net_2"/>
  <line x1="171" x2="849" y1="132" y2="132" class="net_2"/>
  <line x1="849" x2="849" y1="132" y2="134" class="net_2"/>
  <line x1="849" x2="941" y1="134" y2="134" class="net_2"/>
  <line x1="105" x2="161" y1="443.5" y2="443.5" class="net_3"/>
  <line x1="161" x2="161" y1="443.5" y2="776.5" class="net_3"/>
  <circle cx="161" cy="443.5" r="2" style="fill:#000" class="net_3"/>
  <circle cx="161" cy="776.5" r="2" style="fill:#000" class="net_3"/>
  <line x1="161" x2="248" y1="776.5" y2="776.5" class="net_3"/>
  <line x1="105" x2="161" y1="443.5" y2="443.5" class="net_3"/>
  <line x1="161" x2="161" y1="443.5" y2="1086" class="net_3"/>
  <line x1="161" x2="1007" y1="1086" y2="1086" class="net_3"/>
  <line x1="1007" x2="1007" y1="1086" y2="1097" class="net_3"/>
  <line x1="1007" x2="1099" y1="1097" y2="1097" class="net_3"/>
  <line x1="105" x2="449" y1="443.5" y2="443.5" class="net_3"/>
  <line x1="105" x2="161" y1="443.5" y2="443.5" class="net_3"/>
  <line x1="161" x2="161" y1="443.5" y2="143" class="net_3"/>
  <line x1="161" x2="849" y1="143" y2="143" class="net_3"/>
  <line x1="849" x2="849" y1="143" y2="154" class="net_3"/>
  <line x1="849" x2="941" y1="154" y2="154" class="net_3"/>
  <line x1="105" x2="248" y1="796.5" y2="796.5" class="net_4"/>
  <line x1="957" x2="1099" y1="1117" y2="1117" class="net_5"/>
  <line x1="236" x2="449" y1="323.5" y2="323.5" class="net_7"/>
  <line x1="1299" x2="1353" y1="897" y2="897" class="net_142,143"/>
  <line x1="1353" x2="1353" y1="897" y2="12" class="net_142,143"/>
  <line x1="1353" x2="308" y1="12" y2="12" class="net_142,143"/>
  <line x1="308" x2="308" y1="12" y2="343.5" class="net_142,143"/>
  <line x1="308" x2="449" y1="343.5" y2="343.5" class="net_142,143"/>
  <line x1="1299" x2="1353" y1="897" y2="897" class="net_142,143"/>
  <line x1="1353" x2="1353" y1="897" y2="618.5" class="net_142,143"/>
  <line x1="1353" x2="348" y1="618.5" y2="618.5" class="net_142,143"/>
  <line x1="348" x2="348" y1="618.5" y2="403.5" class="net_142,143"/>
  <circle cx="1353" cy="618.5" r="2" style="fill:#000" class="net_142,143"/>
  <line x1="348" x2="449" y1="403.5" y2="403.5" class="net_142,143"/>
  <line x1="557" x2="586" y1="766.5" y2="766.5" class="net_98,99"/>
  <line x1="586" x2="586" y1="766.5" y2="608.5" class="net_98,99"/>
  <line x1="586" x2="338" y1="608.5" y2="608.5" class="net_98,99"/>
  <line x1="338" x2="338" y1="608.5" y2="363.5" class="net_98,99"/>
  <line x1="338" x2="449" y1="363.5" y2="363.5" class="net_98,99"/>
  <line x1="1299" x2="1343" y1="496" y2="496" class="net_90,91,92,93,94,95,96,97"/>
  <line x1="1343" x2="1343" y1="496" y2="23" class="net_90,91,92,93,94,95,96,97"/>
  <line x1="1343" x2="348" y1="23" y2="23" class="net_90,91,92,93,94,95,96,97"/>
  <line x1="348" x2="348" y1="23" y2="383.5" class="net_90,91,92,93,94,95,96,97"/>
  <line x1="348" x2="449" y1="383.5" y2="383.5" class="net_90,91,92,93,94,95,96,97"/>
  <line x1="792.3333333333334" x2="859" y1="239" y2="239" class="net_102,103,104,105,106,107,108,109"/>
  <line x1="859" x2="859" y1="239" y2="506" class="net_102,103,104,105,106,107,108,109"/>
  <line x1="859" x2="924.6" y1="506" y2="506" class="net_102,103,104,105,106,107,108,109"/>
  <line x1="792.3333333333334" x2="849" y1="486" y2="486" class="net_134,135,136,137,138,139,140,141"/>
  <line x1="849" x2="849" y1="486" y2="526" class="net_134,135,136,137,138,139,140,141"/>
  <line x1="849" x2="924.6" y1="526" y2="526" class="net_134,135,136,137,138,139,140,141"/>
  <line x1="777" x2="924.6" y1="546" y2="546" class="net_16,17,18"/>
  <line x1="777" x2="941" y1="174" y2="174" class="net_9"/>
  <line x1="955.6" x2="1007" y1="526" y2="526" class="net_19"/>
  <line x1="1007" x2="1007" y1="526" y2="53" class="net_19"/>
  <line x1="1007" x2="1279" y1="53" y2="53" class="net_19"/>
  <line x1="557" x2="616" y1="786.5" y2="786.5" class="net_20,21,22,23"/>
  <line x1="616" x2="616" y1="786.5" y2="598.5" class="net_20,21,22,23"/>
  <line x1="616" x2="1279" y1="598.5" y2="598.5" class="net_20,21,22,23"/>
  <line x1="557" x2="606" y1="726.5" y2="726.5" class="net_98,99,100,101"/>
  <line x1="606" x2="606" y1="726.5" y2="239" class="net_98,99,100,101"/>
  <line x1="606" x2="667" y1="239" y2="239" class="net_98,99,100,101"/>
  <line x1="576" x2="667" y1="259" y2="259" class="net_196,197,198,199"/>
  <line x1="444" x2="552" y1="736.5" y2="736.5" class="net_98,99,100,101,20,21,22,23"/>
</svg>
